<?xml version="1.0" standalone="no"?>
<!DOCTYPE svg PUBLIC "-//W3C//DTD SVG 20010904//EN"
 "http://www.w3.org/TR/2001/REC-SVG-20010904/DTD/svg10.dtd">
<svg version="1.0" xmlns="http://www.w3.org/2000/svg"
 width="700.000000pt" height="700.000000pt" viewBox="0 0 700.000000 700.000000"
 preserveAspectRatio="xMidYMid meet">
<metadata>
Created by potrace 1.11, written by Peter Selinger 2001-2013
</metadata>
<g transform="translate(0.000000,700.000000) scale(0.100000,-0.100000)"
fill="#000000" stroke="none">
<path d="M3388 5453 c-56 -35 -53 87 -53 -1963 0 -1558 2 -1901 13 -1922 23
-42 59 -55 149 -56 92 0 136 19 154 66 15 38 14 3786 0 3825 -18 47 -65 67
-156 67 -57 0 -88 -5 -107 -17z"/>
<path d="M2334 4850 c-12 -4 -31 -21 -43 -36 l-21 -27 0 -1219 c0 -1113 1
-1221 16 -1244 26 -38 52 -48 139 -50 98 -2 138 13 157 62 20 49 20 2437 0
2471 -21 38 -64 53 -149 52 -43 0 -88 -4 -99 -9z"/>
<path d="M4461 4847 c-13 -6 -33 -24 -43 -38 -19 -26 -20 -54 -20 -1237 0
-1342 -4 -1258 65 -1287 33 -13 165 -14 202 -1 11 3 29 19 40 34 20 27 20 44
21 1242 1 814 -2 1223 -9 1238 -20 43 -67 62 -153 62 -44 0 -90 -6 -103 -13z"/>
<path d="M1254 3851 c-17 -11 -36 -32 -41 -48 -6 -17 -10 -194 -9 -438 1 -443
0 -436 55 -467 16 -9 56 -15 107 -16 91 -1 137 18 154 64 6 15 10 195 10 441
l0 415 -34 34 c-34 34 -35 34 -122 34 -70 0 -96 -4 -120 -19z"/>
<path d="M5530 3863 c-23 -10 -48 -37 -58 -63 -5 -14 -8 -225 -8 -470 1 -414
2 -448 19 -474 10 -15 32 -33 47 -40 38 -15 174 -13 205 4 56 30 55 27 56 457
0 219 0 427 -1 462 0 58 -3 66 -34 97 -34 34 -35 34 -122 33 -49 0 -96 -3
-104 -6z"/>
</g>
</svg>
